<svg width="31" height="38" viewBox="0 0 31 38" fill="none" xmlns="http://www.w3.org/2000/svg">
<path d="M0.626115 4.91278C0.143242 4.2893 -0.0739339 3.49816 0.0223623 2.71341C0.118659 1.92866 0.520539 1.21457 1.1396 0.728248C1.75865 0.241923 2.54417 0.0231937 3.32335 0.120178C4.10254 0.217163 4.81155 0.621917 5.29442 1.2454L13.6846 12.0616C13.7484 12.1445 13.8205 12.2306 13.891 12.3067C12.8635 12.4756 11.8947 12.902 11.0737 13.5467C10.2526 14.1914 9.60576 15.0337 9.19251 15.9961C9.13924 15.9027 9.07922 15.8135 9.01296 15.729L0.626115 4.91278Z" fill="#282828"/>
<path d="M29.3643 32.2795C29.6112 32.587 29.795 32.941 29.9048 33.3207C30.0146 33.7005 30.0483 34.0985 30.0039 34.4915C29.9595 34.8845 29.8379 35.2646 29.6461 35.6098C29.4544 35.955 29.1964 36.2583 28.8871 36.5021C28.5778 36.7459 28.2235 36.9252 27.8447 37.0297C27.4659 37.1342 27.0703 37.1617 26.6808 37.1106C26.2914 37.0596 25.9159 36.931 25.5763 36.7324C25.2367 36.5337 24.9397 36.269 24.7027 35.9536L16.3125 25.1374C16.1743 24.9568 16.0135 24.7949 15.8342 24.6557C16.8868 24.4937 17.8803 24.0618 18.7192 23.4015C19.5582 22.7412 20.2145 21.8747 20.625 20.8853C20.7199 21.0878 20.8364 21.2793 20.9724 21.4565L29.3643 32.2795Z" fill="#282828"/>
<path d="M14.1058 24.6965C13.9513 24.8251 13.8117 24.9708 13.6896 25.1309L5.29941 35.9471C4.81654 36.5713 4.10726 36.9767 3.32761 37.0741C2.54795 37.1716 1.76179 36.9531 1.14207 36.4668C0.522345 35.9805 0.119824 35.2661 0.0230559 34.4809C-0.0737124 33.6957 0.143199 32.9039 0.626071 32.2797L9.01627 21.4635C9.0984 21.3562 9.17297 21.2433 9.23945 21.1255C9.68262 22.0877 10.362 22.9203 11.2135 23.5445C12.065 24.1688 13.0604 24.5641 14.1058 24.6932" fill="#282828"/>
<path d="M16.0422 12.3658C16.1396 12.2736 16.2299 12.1742 16.3124 12.0684L24.7026 1.25211C24.9342 0.924353 25.2292 0.647215 25.57 0.4374C25.9108 0.227586 26.2902 0.0894411 26.6854 0.0312934C27.0806 -0.0268542 27.4834 -0.0038006 27.8696 0.0990646C28.2557 0.20193 28.6171 0.382476 28.9321 0.629821C29.2471 0.877165 29.5091 1.18619 29.7023 1.53825C29.8955 1.89032 30.0159 2.27814 30.0563 2.67834C30.0967 3.07855 30.0561 3.48284 29.9372 3.86685C29.8183 4.25086 29.6233 4.60664 29.3642 4.91273L20.974 15.729C20.8525 15.8865 20.7479 16.0564 20.6619 16.236C20.28 15.2498 19.6559 14.3774 18.8479 13.7005C18.0399 13.0236 17.0746 12.5644 16.0422 12.3658Z" fill="#282828"/>
<path d="M18.8999 18.5968C18.8999 19.374 18.6711 20.1337 18.2424 20.7798C17.8137 21.426 17.2044 21.9297 16.4915 22.2271C15.7786 22.5245 14.9942 22.6023 14.2374 22.4507C13.4806 22.299 12.7854 21.9248 12.2398 21.3753C11.6941 20.8258 11.3226 20.1256 11.172 19.3634C11.0215 18.6012 11.0987 17.8111 11.394 17.0931C11.6893 16.3751 12.1894 15.7615 12.831 15.3297C13.4726 14.8979 14.2269 14.6675 14.9985 14.6675C16.0332 14.6675 17.0256 15.0815 17.7572 15.8184C18.4889 16.5553 18.8999 17.5547 18.8999 18.5968Z" fill="#FF8500"/>
</svg>
