<svg width="238" height="44" viewBox="0 0 238 44" fill="none" xmlns="http://www.w3.org/2000/svg">
<g clip-path="url(#clip0_17_407)">
<path d="M0.774192 5.75607C0.190973 5.02479 -0.0803313 4.08978 0.0199628 3.15675C0.120257 2.22371 0.583934 1.36907 1.30899 0.780846C2.03405 0.192617 2.96109 -0.0810171 3.88618 0.0201385C4.81127 0.121294 5.65863 0.588953 6.24185 1.32024L6.30542 1.40322L16.2497 14.2279C16.3268 14.3291 16.4092 14.426 16.4965 14.5184C15.2769 14.7198 14.1274 15.228 13.1541 15.9961C12.1808 16.7641 11.4151 17.7672 10.9279 18.9127C10.8655 18.8014 10.7942 18.6954 10.7147 18.5958L0.774192 5.75607Z" fill="#282828"/>
<path d="M34.8367 38.2365C35.4015 38.9678 35.6593 39.8934 35.5545 40.8144C35.4497 41.7353 34.9907 42.578 34.2763 43.1612C33.5618 43.7443 32.649 44.0214 31.7341 43.9328C30.8192 43.8442 29.9753 43.397 29.384 42.6874L29.3129 42.5969L19.3687 29.7722C19.2056 29.5575 19.0158 29.3648 18.804 29.1989C20.0512 29.0051 21.228 28.4912 22.2216 27.7065C23.2151 26.9218 23.9919 25.8926 24.4773 24.7178C24.5897 24.9584 24.7276 25.1861 24.8887 25.3967L34.8367 38.2365Z" fill="#282828"/>
<path d="M16.7508 29.2365C16.5668 29.3888 16.4012 29.5622 16.2572 29.7533L6.3129 42.578C6.04015 42.9726 5.69056 43.307 5.28545 43.5609C4.88034 43.8148 4.4282 43.9827 3.95661 44.0546C3.48502 44.1264 3.00387 44.1006 2.54249 43.9788C2.08111 43.8569 1.64917 43.6415 1.27303 43.3458C0.896887 43.05 0.584417 42.6801 0.354677 42.2586C0.124938 41.837 -0.017257 41.3727 -0.0632341 40.8939C-0.109211 40.4151 -0.0580074 39.9319 0.0872548 39.4737C0.232517 39.0155 0.468793 38.592 0.781672 38.2289L10.7222 25.4042C10.8205 25.2778 10.9092 25.1442 10.9877 25.0044C11.5151 26.1435 12.3212 27.1285 13.33 27.8669C14.3388 28.6053 15.5173 29.0727 16.7545 29.2252" fill="#282828"/>
<path d="M19.0433 14.6015C19.1601 14.4925 19.2677 14.3739 19.365 14.2469L29.3092 1.42222C29.8936 0.724907 30.7229 0.282744 31.6233 0.188373C32.5237 0.0940019 33.4254 0.354746 34.1395 0.915977C34.8535 1.47721 35.3245 2.29537 35.4538 3.19906C35.5831 4.10275 35.3606 5.02184 34.833 5.76376L24.8887 18.5884C24.7437 18.7761 24.6184 18.9783 24.5147 19.192C24.0624 18.0227 23.323 16.9885 22.3661 16.1863C21.4091 15.384 20.2658 14.84 19.0433 14.6053" fill="#282828"/>
<path d="M22.4391 21.9981C22.4428 22.9214 22.1748 23.8251 21.6691 24.5947C21.1633 25.3643 20.4426 25.9653 19.598 26.3216C18.7534 26.6778 17.8231 26.7734 16.9247 26.5961C16.0262 26.4188 15.2002 25.9767 14.551 25.3256C13.9019 24.6746 13.4588 23.844 13.278 22.9388C13.0971 22.0337 13.1865 21.0948 13.535 20.241C13.8834 19.3872 14.4752 18.6569 15.2354 18.1424C15.9956 17.628 16.89 17.3526 17.8054 17.3511C19.0301 17.3501 20.2054 17.8385 21.0738 18.7095C21.9422 19.5804 22.4332 20.7629 22.4391 21.9981Z" fill="#FF8500"/>
<path d="M58.0275 12.21C54.6279 12.21 51.4416 13.3944 49.2613 15.3407L50.3084 16.8495C52.4048 15.024 55.0897 14.0328 57.8592 14.062C62.1338 14.062 64.359 16.2611 64.359 20.3612V22.1378H56.8457C50.7647 22.1378 48.6666 24.9705 48.6666 28.3125C48.6666 32.0845 51.6585 34.6154 56.5502 34.6154C60.3649 34.6154 63.0501 33.0501 64.4338 30.5115V34.457H66.4458V20.4593C66.4533 15.0012 63.4353 12.21 58.0275 12.21ZM64.359 27.9428C63.0987 31.1151 60.5406 32.8917 56.8457 32.8917C52.9861 32.8917 50.7647 31.1151 50.7647 28.2408C50.7647 25.7023 52.3579 23.7974 56.8868 23.7974H64.3665L64.359 27.9428Z" fill="#282828"/>
<path d="M83.8137 32.7217C78.6565 32.7217 74.883 28.9988 74.883 23.4163C74.883 17.8337 78.6565 14.1146 83.8137 14.1146C86.5401 14.1146 88.971 15.1707 90.5455 17.4113L92.0975 16.2797C90.2949 13.5714 87.2768 12.2173 83.795 12.2173C77.3812 12.2173 72.7251 16.8266 72.7251 23.4238C72.7251 30.021 77.4149 34.6265 83.8137 34.6265C87.2955 34.6265 90.3136 33.2309 92.1162 30.5641L90.5642 29.4325C88.971 31.6844 86.5401 32.7217 83.8137 32.7217Z" fill="#282828"/>
<path d="M105.785 12.21C102.39 12.21 99.2032 13.3944 97.0228 15.3407L98.07 16.8495C100.166 15.0234 102.851 14.0322 105.621 14.062C109.895 14.062 112.117 16.2611 112.117 20.3612V22.1378H104.611C98.5337 22.1378 96.4357 24.9705 96.4357 28.3125C96.4357 32.0845 99.4276 34.6154 104.319 34.6154C108.134 34.6154 110.819 33.0501 112.203 30.5115V34.457H114.215V20.4593C114.215 15.0012 111.197 12.21 105.785 12.21ZM112.117 27.9428C110.86 31.1151 108.302 32.8917 104.611 32.8917C100.755 32.8917 98.5337 31.1151 98.5337 28.2408C98.5337 25.7023 100.127 23.7974 104.656 23.7974H112.136L112.117 27.9428Z" fill="#282828"/>
<path d="M140.244 3.07422V17.4982C138.483 14.1563 135.21 12.2175 131.314 12.2175C125.147 12.2175 120.494 16.7853 120.494 23.424C120.494 30.0626 125.158 34.6267 131.325 34.6267C135.267 34.6267 138.576 32.6804 140.3 29.2554V34.457H142.354V3.07422H140.244ZM131.437 32.7219C126.407 32.7219 122.633 28.9499 122.633 23.4164C122.633 17.883 126.407 14.1148 131.448 14.1148C136.489 14.1148 140.244 17.8792 140.244 23.4164C140.244 28.9537 136.482 32.7219 131.448 32.7219H131.437Z" fill="#282828"/>
<path d="M169.733 23.3335C169.733 16.7778 165.29 12.21 159.291 12.21C153.293 12.21 148.82 16.8608 148.82 23.4165C148.82 29.9722 153.465 34.6268 160.088 34.6268C163.401 34.6268 166.419 33.3971 168.349 31.0321L167.134 29.6365C165.458 31.7073 162.9 32.7219 160.133 32.7219C154.897 32.7219 151.075 29.1687 150.865 23.9257H169.692C169.692 23.7145 169.733 23.5032 169.733 23.3335ZM150.907 22.2773C151.243 17.4568 154.646 14.0733 159.291 14.0733C163.936 14.0733 167.384 17.4983 167.68 22.2773H150.907Z" fill="#282828"/>
<path d="M203.489 12.21C199.255 12.21 196.065 14.326 194.64 17.5398C193.466 14.028 190.575 12.21 186.633 12.21C182.691 12.21 179.67 14.028 178.245 17.1135V12.3797H176.233V34.457H178.331V22.6998C178.331 17.4568 181.39 14.1148 186.338 14.1148C190.616 14.1148 193.174 16.7363 193.174 21.7266V34.457H195.269V22.6998C195.269 17.4568 198.332 14.1148 203.279 14.1148C207.558 14.1148 210.112 16.7363 210.112 21.7266V34.457H212.21V21.5569C212.21 15.3822 208.773 12.21 203.489 12.21Z" fill="#282828"/>
<path d="M238 12.3799L226.78 37.4597C225.026 41.4995 222.861 42.8197 219.989 42.831H214.955V40.9676H219.97C221.982 40.9676 223.448 40.0397 224.791 37.0372L225.965 34.3705L216.111 12.3799H218.336L227.098 32.1299L235.861 12.3799H238Z" fill="#282828"/>
</g>
<defs>
<clipPath id="clip0_17_407">
<rect width="238" height="44" fill="white"/>
</clipPath>
</defs>
</svg>
