<svg width="20" height="18" viewBox="0 0 20 18" fill="none" xmlns="http://www.w3.org/2000/svg">
<path fill-rule="evenodd" clip-rule="evenodd" d="M13.0402 1.0515C14.0502 1.4535 14.3592 2.8535 14.7722 3.3035C15.1852 3.7535 15.7762 3.9065 16.1032 3.9065C17.8412 3.9065 19.2502 5.3155 19.2502 7.0525V12.8475C19.2502 15.1775 17.3602 17.0675 15.0302 17.0675H4.97018C2.63918 17.0675 0.750183 15.1775 0.750183 12.8475V7.0525C0.750183 5.3155 2.15918 3.9065 3.89718 3.9065C4.22318 3.9065 4.81418 3.7535 5.22818 3.3035C5.64118 2.8535 5.94918 1.4535 6.95918 1.0515C7.97018 0.6495 12.0302 0.6495 13.0402 1.0515Z" stroke="#848A94" stroke-width="1.5" stroke-linecap="round" stroke-linejoin="round"/>
<path d="M15.4955 6.5H15.5045" stroke="#848A94" stroke-width="2" stroke-linecap="round" stroke-linejoin="round"/>
<path fill-rule="evenodd" clip-rule="evenodd" d="M13.1789 10.1282C13.1789 8.37222 11.7559 6.94922 9.99986 6.94922C8.24386 6.94922 6.82086 8.37222 6.82086 10.1282C6.82086 11.8842 8.24386 13.3072 9.99986 13.3072C11.7559 13.3072 13.1789 11.8842 13.1789 10.1282Z" stroke="#848A94" stroke-width="1.5" stroke-linecap="round" stroke-linejoin="round"/>
</svg>
